<svg xmlns="http://www.w3.org/2000/svg" viewBox="0 0 180 180" width="180" height="180">
  <!-- Black background -->
  <rect width="180" height="180" rx="36" ry="36" fill="#09090b"/>

  <!-- Shield / Crest — wide flared shape, white -->
  <path d="
    M90 20
    C80 20 52 27 40 32
    C33 36 30 42 30 52
    L30 84
    C30 109 41 126 58 138
    C70 148 84 155 90 158
    C96 155 110 148 122 138
    C139 126 150 109 150 84
    L150 52
    C150 42 147 36 140 32
    C128 27 100 20 90 20Z
  " fill="#ffffff"/>

</svg>
