<svg xmlns="http://www.w3.org/2000/svg" viewBox="0 0 180 180" width="180" height="180">
  <!-- Black background -->
  <rect width="180" height="180" rx="36" ry="36" fill="#09090b"/>

  <!-- Shield / Crest — wide flared shape, white -->
  <path d="
    M90 34
    C83 34 60 39 50 43
    C45 46 42 51 42 59
    L42 85
    C42 105 51 119 65 129
    C75 137 85 142 90 145
    C95 142 105 137 115 129
    C129 119 138 105 138 85
    L138 59
    C138 51 135 46 130 43
    C120 39 97 34 90 34Z
  " fill="#ffffff"/>

  <!-- Torch handle — black -->
  <rect x="86.5" y="87" width="7" height="36" rx="2" fill="#09090b"/>
  <!-- Handle grip lines -->
  <rect x="85" y="108" width="10" height="1.5" rx="0.75" fill="#09090b"/>
  <rect x="85" y="113" width="10" height="1.5" rx="0.75" fill="#09090b"/>
  <!-- Handle base/pommel -->
  <ellipse cx="90" cy="124" rx="5" ry="2.5" fill="#09090b"/>

  <!-- Torch cup/bowl -->
  <path d="M83.5 89 L85 83 L95 83 L96.5 89 Z" fill="#09090b"/>

  <!-- Flame — outer glow (deeper orange) -->
  <path d="
    M90 53
    C87 58 80 68 81 75
    C81.5 82 86 86 90 86
    C94 86 98.5 82 99 75
    C100 68 93 58 90 53Z
  " fill="#ea580c"/>

  <!-- Flame — inner bright (bright orange) -->
  <path d="
    M90 60
    C88 64 84 70 84.5 74.5
    C85 79 87.5 82.5 90 82.5
    C92.5 82.5 95 79 95.5 74.5
    C96 70 92 64 90 60Z
  " fill="#f97316"/>

  <!-- Flame — core (yellow-orange) -->
  <path d="
    M90 67
    C89 70 86.5 73 87 76
    C87.5 78.5 88.5 80 90 80
    C91.5 80 92.5 78.5 93 76
    C93.5 73 91 70 90 67Z
  " fill="#fdba74"/>

</svg>
