<svg xmlns="http://www.w3.org/2000/svg" viewBox="0 0 180 180" width="180" height="180">
  <defs>
    <linearGradient id="cg" x1="0" y1="0" x2="0" y2="1">
      <stop offset="0%" stop-color="#f97316"/>
      <stop offset="100%" stop-color="#c2410c"/>
    </linearGradient>
  </defs>

  <!-- Black background -->
  <rect width="180" height="180" rx="36" ry="36" fill="#09090b"/>

  <!-- Shield / Crest -->
  <path d="
    M90 24
    C90 24 130 31 138 35
    C146 39 148 49 148 59
    L148 87
    C148 112 134 129 120 140
    C106 151 95 156 90 159
    C85 156 74 151 60 140
    C46 129 32 112 32 87
    L32 59
    C32 49 34 39 42 35
    C50 31 90 24 90 24Z
  " fill="url(#cg)" stroke="#fdba74" stroke-width="1"/>

  <!-- I M Letters -->
  <text x="74" y="112" font-family="Georgia, serif" font-size="64" font-weight="bold" fill="#09090b" text-anchor="middle">I</text>
  <text x="112" y="112" font-family="Georgia, serif" font-size="64" font-weight="bold" fill="#09090b" text-anchor="middle">M</text>

  <!-- Cross -->
  <line x1="90" y1="40" x2="90" y2="51" stroke="#09090b" stroke-width="2" stroke-linecap="round"/>
  <line x1="84.5" y1="44.5" x2="95.5" y2="44.5" stroke="#09090b" stroke-width="2" stroke-linecap="round"/>
</svg>
