<svg xmlns="http://www.w3.org/2000/svg" viewBox="0 0 180 180" width="180" height="180">
  <!-- Black background -->
  <rect width="180" height="180" rx="36" ry="36" fill="#09090b"/>

  <!-- Shield / Crest — wide flared shape, white, smaller -->
  <path d="
    M90 34
    C83 34 60 39 50 43
    C45 46 42 51 42 59
    L42 85
    C42 105 51 119 65 129
    C75 137 85 142 90 145
    C95 142 105 137 115 129
    C129 119 138 105 138 85
    L138 59
    C138 51 135 46 130 43
    C120 39 97 34 90 34Z
  " fill="#ffffff"/>

</svg>
