<svg xmlns="http://www.w3.org/2000/svg" viewBox="0 0 512 512" width="512" height="512">
  <!-- Black background with rounded corners -->
  <rect width="512" height="512" rx="96" ry="96" fill="#09090b"/>

  <!-- Shield / Crest — wide flared shape, white -->
  <path d="
    M256 60
    C230 60 148 78 118 92
    C98 102 88 120 88 148
    L88 240
    C88 310 120 358 164 392
    C200 420 240 440 256 448
    C272 440 312 420 348 392
    C392 358 424 310 424 240
    L424 148
    C424 120 414 102 394 92
    C364 78 282 60 256 60Z
  " fill="#ffffff"/>

</svg>
