<svg xmlns="http://www.w3.org/2000/svg" viewBox="0 0 512 512" width="512" height="512">
  <!-- Black background with rounded corners -->
  <rect width="512" height="512" rx="96" ry="96" fill="#09090b"/>

  <!-- Shield / Crest — wide flared shape, white, smaller -->
  <path d="
    M256 100
    C236 100 172 114 148 125
    C132 133 124 147 124 170
    L124 244
    C124 300 150 338 186 366
    C214 388 244 404 256 410
    C268 404 298 388 326 366
    C362 338 388 300 388 244
    L388 170
    C388 147 380 133 364 125
    C340 114 276 100 256 100Z
  " fill="#ffffff"/>

</svg>
